<?xml version="1.0" encoding="UTF-8"?>
<svg version="1.1" xmlns="http://www.w3.org/2000/svg" width="1250" height="557">
<path d="M0 0 C412.5 0 825 0 1250 0 C1250 183.81 1250 367.62 1250 557 C837.5 557 425 557 0 557 C0 373.19 0 189.38 0 0 Z " fill="#FEFEFD" transform="translate(0,0)"/>
<path d="M0 0 C1.65 0.33 3.3 0.66 5 1 C4.15676554 6.92398891 1.14363774 10.9835568 -2 16 C5.26 16 12.52 16 20 16 C21 20 21 20 20.03125 21.7890625 C19.27328125 22.69785156 19.27328125 22.69785156 18.5 23.625 C17.94054687 24.32882812 17.38109375 25.03265625 16.8046875 25.7578125 C16.20914063 26.49773437 15.61359375 27.23765625 15 28 C10.56933505 33.74956057 6.89198273 39.75079641 3.5625 46.1875 C3.20816895 46.85265625 2.85383789 47.5178125 2.48876953 48.203125 C0.27007868 52.62950675 -0.37357035 55.9469695 0 61 C6.61922201 60.72419908 10.02505221 58.1982267 15 54 C15.61101562 53.52175781 16.22203125 53.04351562 16.8515625 52.55078125 C22.40827957 48.08337656 26.17298075 42.75416335 30.09375 36.84375 C39.13265872 23.27950986 39.13265872 23.27950986 45 20 C48.7709419 19.56622601 49.74509708 19.83006472 53 22 C52.65744874 24.87743061 52.41408846 26.55965227 50.3984375 28.703125 C49.73070312 29.21359375 49.06296875 29.7240625 48.375 30.25 C40.72522118 36.59739712 33.87683095 44.95040436 32.76171875 55.1875 C32.71911627 57.28425748 32.71911627 57.28425748 33 60 C38.79207248 60.73941351 41.93879851 59.41673953 46.62890625 56 C54.01693002 49.76825672 59.7610597 42.10101686 65.5625 34.4375 C73.15454491 24.42100233 73.15454491 24.42100233 76.9375 19.9375 C77.58589844 19.16277344 78.23429688 18.38804687 78.90234375 17.58984375 C81.7235191 15.4516345 83.54168688 15.63129995 87 16 C89.375 17 89.375 17 91 18 C90.33616504 23.15044368 88.10290697 27.56591754 85.96484375 32.23828125 C85.56672989 33.11904831 85.16861603 33.99981537 84.75843811 34.90727234 C83.48966692 37.71125402 82.21369387 40.51189002 80.9375 43.3125 C80.07439235 45.21658053 79.21175665 47.12087506 78.34960938 49.02539062 C76.23853485 53.68609182 74.12099669 58.34380632 72 63 C73.89342895 61.59312836 75.78506535 60.18394736 77.67578125 58.7734375 C78.72934814 57.98888184 79.78291504 57.20432617 80.8684082 56.39599609 C87.45503383 51.35653684 93.23179969 46.13045986 98.3125 39.5625 C106.67589085 29.05690728 120.18132374 19.27289209 133 15 C135.28851645 14.85380485 137.58200316 14.77908664 139.875 14.75 C141.08929687 14.72421875 142.30359375 14.6984375 143.5546875 14.671875 C147.2392366 15.02278444 149.08970876 15.75923773 152 18 C152.8125 20.1875 152.8125 20.1875 153 22 C152.43796875 21.68289063 151.8759375 21.36578125 151.296875 21.0390625 C146.39383541 18.82102078 141.21875855 18.94435418 136.11962891 20.61669922 C121.11929736 26.58345656 108.33696748 37.43657045 101.5 52.25 C100.92062745 55.43654903 101.25356522 57.86497393 102 61 C109.5130852 61 113.56633786 56.79247357 119 52 C119.75925781 51.36191406 120.51851562 50.72382813 121.30078125 50.06640625 C127.86377017 44.40789647 133.67384277 38.11100533 139.46728516 31.67602539 C140.12519043 30.95793701 140.7830957 30.23984863 141.4609375 29.5 C142.33951416 28.52546875 142.33951416 28.52546875 143.23583984 27.53125 C145.20739681 25.81998439 146.42122242 25.29434858 149 25 C151.75 25.9375 151.75 25.9375 154 27 C153.16504793 31.65021915 150.70836088 35.6493789 148.52734375 39.77929688 C145.66948913 45.32162163 144.86303981 49.63230442 144.9375 55.8125 C144.94652344 56.78832031 144.95554687 57.76414062 144.96484375 58.76953125 C144.97644531 59.50558594 144.98804688 60.24164063 145 61 C147.82541892 61.82490378 149.39381482 62.26437638 152.140625 61.06640625 C160.79199254 54.89830162 167.99865829 48.45432504 174.37109375 39.90625 C174.90863281 39.2771875 175.44617188 38.648125 176 38 C176.66 38 177.32 38 178 38 C177.57552164 42.8372846 175.24359993 45.4499735 172 48.8125 C171.25786255 49.59753906 171.25786255 49.59753906 170.50073242 50.3984375 C154.78426284 66.83422519 154.78426284 66.83422519 144.8125 67.5625 C140.21030747 66.88348799 138.83141114 65.60361417 136 62 C134.80268436 59.60536872 134.83317524 58.04624077 134.8125 55.375 C134.79832031 54.55773437 134.78414062 53.74046875 134.76953125 52.8984375 C135.07133729 49.10284288 136.00851506 45.67594022 137 42 C136.58226318 42.45850342 136.16452637 42.91700684 135.73413086 43.3894043 C133.80864428 45.49503161 131.87319603 47.59125614 129.9375 49.6875 C129.28072266 50.40873047 128.62394531 51.12996094 127.94726562 51.87304688 C121.70415104 58.6082296 115.54951803 64.47147447 106.0625 65.375 C101.76279273 65.25331017 99.28340054 63.82525163 96 61 C93.85453353 58.0407359 92.81315643 55.52119113 92 52 C91.59257568 52.43642822 91.18515137 52.87285645 90.76538086 53.32250977 C87.02224769 57.21286547 83.19652249 60.38085189 78.74633789 63.42236328 C69.63147284 69.74621487 65.11375967 75.6393363 60.94970703 85.78320312 C59.17797567 89.91876116 57.08737322 93.89179156 55 97.875 C54.5762207 98.68437012 54.15244141 99.49374023 53.71582031 100.32763672 C50.42970666 106.47041432 46.74606911 111.87583734 42 117 C41.41605469 117.67417969 40.83210937 118.34835937 40.23046875 119.04296875 C35.66993512 124.03587802 31.2976716 126.78971637 24.4453125 127.125 C20.10429779 126.91889841 17.54368015 126.3588289 13.875 123.9375 C11.94462229 120.91324159 11.20369985 118.83856525 11.4609375 115.23046875 C14.86063286 101.16361332 28.83362933 90.96727798 40 83 C40.69770508 82.50193848 41.39541016 82.00387695 42.11425781 81.49072266 C44.29811804 79.94152566 46.49006186 78.40486826 48.6875 76.875 C49.38302979 76.389104 50.07855957 75.90320801 50.79516602 75.40258789 C55.75945608 72 55.75945608 72 58 72 C58.16653076 71.45617676 58.33306152 70.91235352 58.50463867 70.35205078 C60.33402018 64.60115955 62.64730523 59.28163478 65.3125 53.875 C69.26405248 45.71395659 72.77054084 37.47258108 76 29 C75.07380859 30.21623047 75.07380859 30.21623047 74.12890625 31.45703125 C49.9991114 63.05088637 49.9991114 63.05088637 37.53515625 65.48046875 C33.47426753 65.73047355 31.50878435 65.33558117 28.0625 63.0625 C25.44314775 59.17315879 24.66996609 55.58976771 24 51 C23.38253906 51.66386719 22.76507812 52.32773437 22.12890625 53.01171875 C16.83503565 58.53120331 11.95050238 62.77940084 5 66 C4.01 66.495 4.01 66.495 3 67 C-1.37936569 67.51571681 -4.85046515 67.83341277 -8.5 65.1875 C-11.26454352 61.15587403 -11.4559501 57.78747607 -11 53 C-8.56495975 45.06090427 -3.00150196 39.21145741 2.54174805 33.265625 C6.65680617 28.82512957 6.65680617 28.82512957 8 23 C3.44810175 20.33547419 0.26954012 19.25532928 -5 20 C-7.20283352 22.24316709 -8.69525917 24.09775574 -10.375 26.6875 C-10.84558838 27.36723877 -11.31617676 28.04697754 -11.80102539 28.74731445 C-13.63249871 31.4043277 -15.4059774 34.09753787 -17.18017578 36.79296875 C-24.91287205 48.52015108 -35.06987546 62.35662515 -49 67 C-54.21573948 67.50474898 -54.21573948 67.50474898 -57 67 C-59.9375 64.5625 -59.9375 64.5625 -62 62 C-62.33 61.67 -62.66 61.34 -63 61 C-63.12725095 59.3161444 -63.1758864 57.62611707 -63.1875 55.9375 C-63.20167969 55.01839844 -63.21585938 54.09929687 -63.23046875 53.15234375 C-62.94466576 49.24314013 -62.029629 45.78073256 -61 42 C-61.38220703 42.42297363 -61.76441406 42.84594727 -62.15820312 43.28173828 C-63.93168297 45.23608746 -65.71572462 47.18050398 -67.5 49.125 C-68.10070312 49.79015625 -68.70140625 50.4553125 -69.3203125 51.140625 C-75.69890731 58.06207894 -82.2585598 64.45319617 -91.9375 65.375 C-96.23720727 65.25331017 -98.71659946 63.82525163 -102 61 C-104.83222342 57.6013319 -105.59792903 54.55560188 -105.4140625 50.109375 C-104.63140939 46.12227424 -102.42013912 43.18812993 -100 40 C-99.58878906 39.42507813 -99.17757812 38.85015625 -98.75390625 38.2578125 C-91.04685396 28.33240985 -77.01090018 19.00363339 -65 15 C-62.71148355 14.85380485 -60.41799684 14.77908664 -58.125 14.75 C-56.91070313 14.72421875 -55.69640625 14.6984375 -54.4453125 14.671875 C-50.7607634 15.02278444 -48.91029124 15.75923773 -46 18 C-45.1875 20.1875 -45.1875 20.1875 -45 22 C-45.56203125 21.68289063 -46.1240625 21.36578125 -46.703125 21.0390625 C-51.60616459 18.82102078 -56.78124145 18.94435418 -61.88037109 20.61669922 C-76.88070264 26.58345656 -89.66303252 37.43657045 -96.5 52.25 C-97.07937255 55.43654903 -96.74643478 57.86497393 -96 61 C-89.15603142 61.64889148 -85.04709661 57.1093135 -80 53 C-72.62772248 46.70424801 -65.92956303 39.95284429 -59.47265625 32.7265625 C-54.51280166 27.25740215 -54.51280166 27.25740215 -52 25 C-48.86222932 25.12304983 -46.79298089 25.60350956 -44 27 C-44.83495207 31.65021915 -47.29163912 35.6493789 -49.47265625 39.77929688 C-52.33051087 45.32162163 -53.13696019 49.63230442 -53.0625 55.8125 C-53.05347656 56.78832031 -53.04445313 57.76414062 -53.03515625 58.76953125 C-53.02355469 59.50558594 -53.01195312 60.24164063 -53 61 C-50.14010439 61.84144039 -48.59713022 62.26586767 -45.82421875 61.03125 C-43.52417746 59.38295716 -41.24290864 57.72560479 -39 56 C-38.33742188 55.50371094 -37.67484375 55.00742187 -36.9921875 54.49609375 C-25.76076043 45.4245565 -18.35436173 32.18946338 -11 20 C-12.98 19.34 -14.96 18.68 -17 18 C-16.72265625 16.1015625 -16.72265625 16.1015625 -16 14 C-14.09550661 13.13128372 -12.18990915 12.26486013 -10.27734375 11.4140625 C-5.84068209 8.65922284 -3.00686259 4.19041489 0 0 Z " fill="#845F43" transform="translate(638,256)"/>
<path d="M0 0 C6.03322052 5.63396328 10.3087791 12.59098342 10.66796875 20.9609375 C10.84274816 38.23282273 7.44870464 52.08900586 -4.0859375 65.60546875 C-12.72490721 74.34229087 -22.0628243 80.54876429 -33.5 85.046875 C-34.28503906 85.37300781 -35.07007813 85.69914062 -35.87890625 86.03515625 C-48.83486511 91.22245667 -67.54007831 91.16684406 -80.5 86.046875 C-83.61566016 84.5427632 -86.58499081 82.90924198 -89.5 81.046875 C-89.8403125 82.036875 -89.8403125 82.036875 -90.1875 83.046875 C-92.43111911 88.17514724 -94.78783463 92.90543142 -99.5 96.046875 C-102.68190149 95.88370056 -104.19055878 95.29442797 -106.6875 93.296875 C-111.64438393 87.14350185 -110.838644 80.02914193 -110.81567383 72.53491211 C-110.81249428 70.35545728 -110.83607024 68.17733605 -110.86132812 65.99804688 C-110.86359939 64.61458504 -110.86430542 63.23111957 -110.86328125 61.84765625 C-110.86626221 60.59122314 -110.86924316 59.33479004 -110.87231445 58.0402832 C-110.74945068 57.0524585 -110.62658691 56.06463379 -110.5 55.046875 C-107.27208445 52.8949313 -106.21599191 52.84601057 -102.5 53.046875 C-102.58121094 53.748125 -102.66242188 54.449375 -102.74609375 55.171875 C-103.11851465 60.76578889 -103.00968393 64.25647868 -99.25 68.609375 C-96.85956194 71.06621412 -94.63134898 72.65439459 -91.5 74.046875 C-91.39421631 73.35537354 -91.28843262 72.66387207 -91.17944336 71.95141602 C-90.38741662 68.56559421 -89.10727706 65.72206077 -87.62890625 62.57421875 C-87.20532082 61.66682701 -87.20532082 61.66682701 -86.7731781 60.74110413 C-85.87471284 58.81975833 -84.96868385 56.90209048 -84.0625 54.984375 C-83.45719288 53.69228645 -82.85237033 52.39997079 -82.24804688 51.10742188 C-77.91904053 41.86540025 -77.91904053 41.86540025 -76.33862305 38.77832031 C-75.37689348 36.79270572 -75.08298496 35.03566956 -74.75 32.859375 C-72.39771103 22.01762206 -62.80451875 12.36246819 -53.875 6.25 C-50.54858104 4.56490618 -48.18546155 4.65893168 -44.5 5.046875 C-41.0625 6.546875 -41.0625 6.546875 -38.5 8.046875 C-38.5 9.036875 -38.5 10.026875 -38.5 11.046875 C-39.61375 11.335625 -40.7275 11.624375 -41.875 11.921875 C-63.8175736 20.34349656 -77.01232831 57.67494084 -86.5 77.046875 C-77.59733464 84.5667529 -67.08698257 85.18340617 -55.81054688 84.34863281 C-39.28421217 82.19029071 -22.01505748 70.90507405 -11.375 58.546875 C-8.10535673 54.2538068 -5.56220887 49.71849765 -3.125 44.921875 C-2.79097168 44.26509766 -2.45694336 43.60832031 -2.11279297 42.93164062 C2.0080566 34.43967888 4.17514483 25.15095636 1.96484375 15.77734375 C-0.91855919 7.53679872 -6.00862417 1.17022259 -13.6015625 -3.1484375 C-34.09744909 -12.92562722 -59.64912036 -8.57681761 -80.33984375 -1.71875 C-83.45923049 -0.57633488 -86.47389027 0.67811692 -89.5 2.046875 C-90.48742187 2.47484375 -91.47484375 2.9028125 -92.4921875 3.34375 C-103.05550709 8.22757049 -114.08264378 14.99469614 -119.60546875 25.58984375 C-121.03668096 29.52098996 -121.44326622 32.95377338 -120.5 37.046875 C-117.60626815 41.78207256 -111.3911364 43.76932294 -106.5 46.046875 C-106.5 46.376875 -106.5 46.706875 -106.5 47.046875 C-112.49844352 47.54674529 -116.45295723 46.33750456 -121.5 43.046875 C-127.3864813 37.78661512 -127.3864813 37.78661512 -127.66796875 33.47265625 C-127.73391415 22.96095892 -126.41545831 17.20458961 -119.04296875 9.46875 C-92.45608742 -15.85208937 -29.78953849 -23.27307694 0 0 Z " fill="#846043" transform="translate(526.5,235.953125)"/>
<path d="M0 0 C1.21429687 -0.02578125 2.42859375 -0.0515625 3.6796875 -0.078125 C7.3642366 0.27278444 9.21470876 1.00923773 12.125 3.25 C12.9375 5.4375 12.9375 5.4375 13.125 7.25 C12.56296875 6.93289063 12.0009375 6.61578125 11.421875 6.2890625 C6.51883541 4.07102078 1.34375855 4.19435418 -3.75537109 5.86669922 C-18.75570264 11.83345656 -31.53803252 22.68657045 -38.375 37.5 C-38.95437255 40.68654903 -38.62143478 43.11497393 -37.875 46.25 C-31.03103142 46.89889148 -26.92209661 42.3593135 -21.875 38.25 C-14.50272248 31.95424801 -7.80456303 25.20284429 -1.34765625 17.9765625 C3.61219834 12.50740215 3.61219834 12.50740215 6.125 10.25 C9.26277068 10.37304983 11.33201911 10.85350956 14.125 12.25 C13.29004793 16.90021915 10.83336088 20.8993789 8.65234375 25.02929688 C5.79448913 30.57162163 4.98803981 34.88230442 5.0625 41.0625 C5.07152344 42.03832031 5.08054687 43.01414062 5.08984375 44.01953125 C5.10144531 44.75558594 5.11304688 45.49164063 5.125 46.25 C7.98489561 47.09144039 9.52786978 47.51586767 12.30078125 46.28125 C14.60082254 44.63295716 16.88209136 42.97560479 19.125 41.25 C19.78757812 40.75371094 20.45015625 40.25742187 21.1328125 39.74609375 C26.15095526 35.69297845 29.88965275 30.90649904 33.62475586 25.69311523 C35.83024425 22.66879062 37.54757066 20.53820277 41.125 19.25 C39.24804931 30.18196955 26.89172038 40.83607417 18.52734375 47.23828125 C13.00412297 51.00125606 8.02916118 53.50163156 1.125 52.25 C-1.8125 49.8125 -1.8125 49.8125 -3.875 47.25 C-4.205 46.92 -4.535 46.59 -4.875 46.25 C-5.00225095 44.5661444 -5.0508864 42.87611707 -5.0625 41.1875 C-5.07667969 40.26839844 -5.09085938 39.34929687 -5.10546875 38.40234375 C-4.81966576 34.49314013 -3.904629 31.03073256 -2.875 27.25 C-3.25720703 27.67297363 -3.63941406 28.09594727 -4.03320312 28.53173828 C-5.80668297 30.48608746 -7.59072462 32.43050398 -9.375 34.375 C-9.97570312 35.04015625 -10.57640625 35.7053125 -11.1953125 36.390625 C-17.57390731 43.31207894 -24.1335598 49.70319617 -33.8125 50.625 C-38.11220727 50.50331017 -40.59159946 49.07525163 -43.875 46.25 C-46.70722342 42.8513319 -47.47292903 39.80560188 -47.2890625 35.359375 C-46.50640939 31.37227424 -44.29513912 28.43812993 -41.875 25.25 C-41.46378906 24.67507813 -41.05257812 24.10015625 -40.62890625 23.5078125 C-31.96119877 12.34524559 -14.37896119 0.18239697 0 0 Z " fill="#866145" transform="translate(579.875,270.75)"/>
<path d="M0 0 C3.97038562 3.6984414 6.56309874 8.67256866 6.875 14.12109375 C6.34506677 19.96139953 4.49022434 23.48056799 0.0625 27.1875 C-5.26673407 30.00294442 -9.12556337 30.54962581 -14.9375 28.875 C-20.55725171 25.58797541 -23.8368603 21.20814777 -25.86328125 15.08203125 C-26.59269982 11.03707374 -25.98958724 7.64268385 -24.25 3.9375 C-17.35905626 -4.52284715 -9.01416597 -5.7205284 0 0 Z " fill="#F7F7F6" transform="translate(179.25,87.0625)"/>
<path d="M0 0 C1.22783203 -0.00386719 2.45566406 -0.00773438 3.72070312 -0.01171875 C16.12875823 0.0016448 16.12875823 0.0016448 21.9375 1.125 C22.4325 2.115 22.4325 2.115 22.9375 3.125 C22.17421387 3.12910889 21.41092773 3.13321777 20.62451172 3.13745117 C-0.90341515 3.33914439 -21.20414922 5.14274869 -41.0625 14.125 C-42.04992187 14.55296875 -43.03734375 14.9809375 -44.0546875 15.421875 C-54.61800709 20.30569549 -65.64514378 27.07282114 -71.16796875 37.66796875 C-72.59918096 41.59911496 -73.00576622 45.03189838 -72.0625 49.125 C-69.16876815 53.86019756 -62.9536364 55.84744794 -58.0625 58.125 C-58.0625 58.455 -58.0625 58.785 -58.0625 59.125 C-64.06094352 59.62487029 -68.01545723 58.41562956 -73.0625 55.125 C-78.9489813 49.86474012 -78.9489813 49.86474012 -79.23046875 45.55078125 C-79.29641415 35.03908392 -77.97795831 29.28271461 -70.60546875 21.546875 C-51.98955628 3.81743455 -24.67820724 -0.07797222 0 0 Z " fill="#845F42" transform="translate(478.0625,223.875)"/>
<path d="M0 0 C2.89696854 0.36982577 5.37621929 0.68810965 8 2 C7.16504793 6.65021915 4.70836088 10.6493789 2.52734375 14.77929688 C-0.33051087 20.32162163 -1.13696019 24.63230442 -1.0625 30.8125 C-1.05347656 31.78832031 -1.04445313 32.76414062 -1.03515625 33.76953125 C-1.02355469 34.50558594 -1.01195312 35.24164063 -1 36 C1.82541892 36.82490378 3.39381482 37.26437638 6.140625 36.06640625 C14.79199254 29.89830162 21.99865829 23.45432504 28.37109375 14.90625 C29.17740234 13.96265625 29.17740234 13.96265625 30 13 C30.66 13 31.32 13 32 13 C31.57552164 17.8372846 29.24359993 20.4499735 26 23.8125 C25.5052417 24.33585937 25.0104834 24.85921875 24.50073242 25.3984375 C8.78426284 41.83422519 8.78426284 41.83422519 -1.1875 42.5625 C-5.78969253 41.88348799 -7.16858886 40.60361417 -10 37 C-11.19731564 34.60536872 -11.16682476 33.04624077 -11.1875 30.375 C-11.20167969 29.55773437 -11.21585938 28.74046875 -11.23046875 27.8984375 C-10.92866271 24.10284288 -9.99148494 20.67594022 -9 17 C-9.62660522 17.68775513 -9.62660522 17.68775513 -10.26586914 18.3894043 C-12.19135572 20.49503161 -14.12680397 22.59125614 -16.0625 24.6875 C-16.71927734 25.40873047 -17.37605469 26.12996094 -18.05273438 26.87304688 C-23.08776228 32.30492427 -28.6091497 38.0550394 -36 40 C-38.8125 39.625 -38.8125 39.625 -41 39 C-38.12137524 35.93565751 -35.16067673 33.29675145 -31.8125 30.75 C-20.9224001 22.35926729 -11.74036798 12.59562322 -2.42358398 2.53125 C-1.62820839 1.67571995 -0.8260006 0.8260006 0 0 Z " fill="#856144" transform="translate(784,281)"/>
<path d="M0 0 C0.66 0.33 1.32 0.66 2 1 C-15.09195516 38.49736734 -15.09195516 38.49736734 -28 44 C-30.625 44.3125 -30.625 44.3125 -33 44 C-35.47483152 40.28775272 -35.25943463 38.67379263 -34.6640625 34.40234375 C-33.48584296 30.1399613 -30.92813707 27.22897307 -28 24 C-27.51789062 23.44957031 -27.03578125 22.89914062 -26.5390625 22.33203125 C-21.67827269 17.13814163 -15.94612989 12.94049468 -10.3359375 8.6015625 C-6.78451012 5.84995238 -3.37111031 2.96978766 0 0 Z " fill="#FBFAF8" transform="translate(690,335)"/>
<path d="M0 0 C0.66 0.33 1.32 0.66 2 1 C-0.97 3.97 -0.97 3.97 -4 7 C-3.03895416 10.55586962 -2.37282951 11.76801719 0.8125 13.75 C3.5833387 14.83660341 6.06502873 15.56838658 9 16 C4.26970015 22.9748735 -1.88373613 30.89577159 -10 34 C-13.75 33.625 -13.75 33.625 -17 33 C-18.75789896 27.05018815 -17.42469805 22.88140644 -14.94140625 17.28515625 C-11.25580156 11.04854952 -6.12428931 6.06927393 -1 1 C-0.67 0.67 -0.34 0.34 0 0 Z " fill="#F5F4F2" transform="translate(688,283)"/>
<path d="M0 0 C2.5625 1 2.5625 1 4.5625 3 C5.38671875 5.359375 5.38671875 5.359375 5.5625 8 C4.26953125 10.203125 4.26953125 10.203125 2.375 12.25 C1.76269531 12.93578125 1.15039062 13.6215625 0.51953125 14.328125 C-1.4375 16 -1.4375 16 -3.34838867 16.4753418 C-6.83106439 17.34997895 -9.61573519 19.57875008 -12.5625 21.5625 C-19.17498103 26 -19.17498103 26 -21.4375 26 C-22.41086986 21.56650029 -22.98864145 17.52571919 -22.4375 13 C-19.65986576 9.66919283 -16.22934844 8.01082872 -12.4375 6 C-10.84550922 4.84517494 -9.26153425 3.67918266 -7.6875 2.5 C-4.65241341 0.48019016 -3.76399955 0 0 0 Z " fill="#F0EFEE" transform="translate(404.4375,236)"/>
<path d="M0 0 C3 1.0625 3 1.0625 5 3.0625 C5.35631202 5.83282594 5.48350554 7.39767988 3.8125 9.6953125 C-1.07365927 13.71796948 -6.18185859 17.3868255 -11.375 21 C-12.08914063 21.49709473 -12.80328125 21.99418945 -13.5390625 22.50634766 C-14.21453125 22.96702637 -14.89 23.42770508 -15.5859375 23.90234375 C-16.1948584 24.31863037 -16.8037793 24.73491699 -17.43115234 25.16381836 C-19 26.0625 -19 26.0625 -21 26.0625 C-22.18095297 21.67610327 -23.06073114 17.55685712 -22 13.0625 C-19.73879619 10.42545578 -16.93719273 8.87036822 -14 7.0625 C-13.17113281 6.41667969 -12.34226562 5.77085938 -11.48828125 5.10546875 C-4.2522057 -0.51273998 -4.2522057 -0.51273998 0 0 Z " fill="#F0F0EF" transform="translate(1057,48.9375)"/>
<path d="M0 0 C10.29411765 0 10.29411765 0 15 4 C16.84862688 7.69725375 16.47587094 11.96461442 16 16 C14.20353146 18.93423195 13.0558929 20.47205355 10 22 C6.7 22 3.4 22 0 22 C0 14.74 0 7.48 0 0 Z " fill="#8A684C" transform="translate(562,400)"/>
<path d="M0 0 C11 0 11 0 15 3 C15.4375 6 15.4375 6 15 9 C14 10 13 11 12 12 C12.28379333 15.59471546 13.5873827 18.70389298 15 22 C14.01 22 13.02 22 12 22 C8 15.25 8 15.25 8 13 C6.35 13 4.7 13 3 13 C3 15.97 3 18.94 3 22 C2.01 22 1.02 22 0 22 C0 14.74 0 7.48 0 0 Z " fill="#835E41" transform="translate(589,400)"/>
<path d="M0 0 C10 0 10 0 14 3 C14.25 6.6875 14.25 6.6875 14 10 C12.02 10.99 12.02 10.99 10 12 C11.65 15.3 13.3 18.6 15 22 C13.68 22 12.36 22 11 22 C7 15.25 7 15.25 7 13 C5.68 13 4.36 13 3 13 C3 15.97 3 18.94 3 22 C2.01 22 1.02 22 0 22 C0 14.74 0 7.48 0 0 Z " fill="#8F6E54" transform="translate(700,400)"/>
<path d="M0 0 C1.32 0 2.64 0 4 0 C6.64 4.62 9.28 9.24 12 14 C12.33 9.38 12.66 4.76 13 0 C13.99 0 14.98 0 16 0 C16 7.26 16 14.52 16 22 C12 21 12 21 9.859375 17.83984375 C9.14296756 16.54633032 8.44025765 15.24515477 7.75 13.9375 C7.38648438 13.27427734 7.02296875 12.61105469 6.6484375 11.92773438 C5.75383252 10.29154895 4.87533933 8.64657276 4 7 C3.67 11.95 3.34 16.9 3 22 C2.01 22 1.02 22 0 22 C0 14.74 0 7.48 0 0 Z " fill="#97785F" transform="translate(540,400)"/>
<path d="M0 0 C4 1 4 1 6.140625 4.16015625 C6.85703244 5.45366968 7.55974235 6.75484523 8.25 8.0625 C8.61351562 8.72572266 8.97703125 9.38894531 9.3515625 10.07226562 C10.24616748 11.70845105 11.12466067 13.35342724 12 15 C12.33 10.05 12.66 5.1 13 0 C13.99 0 14.98 0 16 0 C16 7.26 16 14.52 16 22 C12 21 12 21 9.859375 17.83984375 C9.14296756 16.54633032 8.44025765 15.24515477 7.75 13.9375 C7.38648438 13.27427734 7.02296875 12.61105469 6.6484375 11.92773438 C5.75383252 10.29154895 4.87533933 8.64657276 4 7 C3.67 11.95 3.34 16.9 3 22 C2.01 22 1.02 22 0 22 C0 14.74 0 7.48 0 0 Z " fill="#93735A" transform="translate(737,400)"/>
<path d="M0 0 C0.99 0 1.98 0 3 0 C4.17461555 3.10121711 5.33830456 6.20642241 6.5 9.3125 C6.83386719 10.19357422 7.16773438 11.07464844 7.51171875 11.98242188 C7.82753906 12.82998047 8.14335938 13.67753906 8.46875 14.55078125 C8.90864258 15.72120972 8.90864258 15.72120972 9.35742188 16.9152832 C10 19 10 19 10 22 C9.01 22 8.02 22 7 22 C6.67 20.02 6.34 18.04 6 16 C3.03 16 0.06 16 -3 16 C-3.33 17.98 -3.66 19.96 -4 22 C-4.99 22 -5.98 22 -7 22 C-6.42208517 16.89070756 -5.2819361 12.48388389 -3.5 7.625 C-3.0565625 6.40039062 -2.613125 5.17578125 -2.15625 3.9140625 C-1 1 -1 1 0 0 Z " fill="#96765D" transform="translate(527,400)"/>
<path d="M0 0 C1.32 0 2.64 0 4 0 C5.17171756 3.28989086 6.33651088 6.58219102 7.5 9.875 C7.83386719 10.81214844 8.16773438 11.74929688 8.51171875 12.71484375 C8.98544922 14.05869141 8.98544922 14.05869141 9.46875 15.4296875 C9.76201172 16.25710449 10.05527344 17.08452148 10.35742188 17.93701172 C11 20 11 20 11 22 C10.01 22 9.02 22 8 22 C7.34 20.02 6.68 18.04 6 16 C2.04 16.495 2.04 16.495 -2 17 C-2.99 19.475 -2.99 19.475 -4 22 C-4.99 21.67 -5.98 21.34 -7 21 C-4.69 14.07 -2.38 7.14 0 0 Z " fill="#89654A" transform="translate(467,400)"/>
<path d="M0 0 C1.32 0 2.64 0 4 0 C5.17171756 3.28989086 6.33651088 6.58219102 7.5 9.875 C7.83386719 10.81214844 8.16773438 11.74929688 8.51171875 12.71484375 C8.98544922 14.05869141 8.98544922 14.05869141 9.46875 15.4296875 C9.76201172 16.25710449 10.05527344 17.08452148 10.35742188 17.93701172 C11 20 11 20 11 22 C10.01 22 9.02 22 8 22 C7.34 20.02 6.68 18.04 6 16 C2.04 16.495 2.04 16.495 -2 17 C-2.99 19.475 -2.99 19.475 -4 22 C-4.66 22 -5.32 22 -6 22 C-5.40421223 16.73378394 -4.18691204 12.05591981 -2.4375 7.0625 C-2.20353516 6.37865234 -1.96957031 5.69480469 -1.72851562 4.99023438 C-1.15788171 3.32491499 -0.57972902 1.66217507 0 0 Z " fill="#89664A" transform="translate(723,400)"/>
<path d="M0 0 C1.95605469 0.19189453 1.95605469 0.19189453 4 1 C5.00488281 2.71826172 5.00488281 2.71826172 5.703125 4.9296875 C5.9609375 5.72503906 6.21875 6.52039063 6.484375 7.33984375 C6.73703125 8.17644531 6.9896875 9.01304687 7.25 9.875 C7.518125 10.70386719 7.78625 11.53273438 8.0625 12.38671875 C10 18.50566008 10 18.50566008 10 22 C9.01 22 8.02 22 7 22 C6.67 20.02 6.34 18.04 6 16 C3.03 16 0.06 16 -3 16 C-3.33 17.98 -3.66 19.96 -4 22 C-4.99 22 -5.98 22 -7 22 C-3.25 3.25 -3.25 3.25 0 0 Z " fill="#8A674B" transform="translate(665,400)"/>
<path d="M0 0 C9.24 0 18.48 0 28 0 C25.74152755 4.51694491 24.38261445 5.64637372 20 8 C15.69574607 9.29214925 12.64636216 9.18623994 8.3125 7.9375 C5 6 5 6 0 0 Z " fill="#F1F1F0" transform="translate(310,0)"/>
<path d="M0 0 C5.46720688 1.82240229 8.07220563 7.77381857 11.25 12.375 C12.00796875 13.44234375 12.7659375 14.5096875 13.546875 15.609375 C14.2584375 16.63289063 14.97 17.65640625 15.703125 18.7109375 C16.35958008 19.65243652 17.01603516 20.59393555 17.69238281 21.56396484 C18.12389648 22.36785645 18.55541016 23.17174805 19 24 C18.67 24.99 18.34 25.98 18 27 C17.01 27.33 16.02 27.66 15 28 C12 24.25 12 24.25 12 22 C11.34 22 10.68 22 10 22 C8.67138672 20.34765625 8.67138672 20.34765625 7.1796875 18.0625 C6.64472656 17.25039063 6.10976563 16.43828125 5.55859375 15.6015625 C4.72521484 14.31378906 4.72521484 14.31378906 3.875 13 C3.31167969 12.14148437 2.74835938 11.28296875 2.16796875 10.3984375 C0.77239751 8.26960002 -0.61655555 6.13673026 -2 4 C-1.34 2.68 -0.68 1.36 0 0 Z " fill="#F1F1F0" transform="translate(260,17)"/>
<path d="M0 0 C7 0 7 0 8.9375 1.5 C10.43935649 5.03377999 10.65863639 8.26279354 10 12 C8.375 15 8.375 15 6 17 C4.02 17 2.04 17 0 17 C0 11.39 0 5.78 0 0 Z " fill="#FCFCFA" transform="translate(565,403)"/>
<path d="M0 0 C0.99 0 1.98 0 3 0 C3.06058594 1.20398438 3.12117187 2.40796875 3.18359375 3.6484375 C3.26799732 5.22397077 3.35264541 6.79949096 3.4375 8.375 C3.47681641 9.1690625 3.51613281 9.963125 3.55664062 10.78125 C3.68893404 15.02601221 3.68893404 15.02601221 5 19 C6.98 19 8.96 19 11 19 C12.6498007 15.70039859 12.38258361 12.00872116 12.5625 8.375 C12.60568359 7.57320313 12.64886719 6.77140625 12.69335938 5.9453125 C12.79951457 3.9637489 12.90026855 1.98189729 13 0 C13.99 0 14.98 0 16 0 C16.05404449 2.75026417 16.09369306 5.49946203 16.125 8.25 C16.15013672 9.41595703 16.15013672 9.41595703 16.17578125 10.60546875 C16.23866553 17.96292928 16.23866553 17.96292928 14 21 C10.82459056 22.58770472 7.45809441 22.41100302 4 22 C1.82523599 20.45661909 1.18167363 19.36334727 0 17 C-0.07194869 14.11629667 -0.09291708 11.25760336 -0.0625 8.375 C-0.05798828 7.57320313 -0.05347656 6.77140625 -0.04882812 5.9453125 C-0.03703168 3.96350994 -0.01909605 1.98174567 0 0 Z " fill="#8B694E" transform="translate(678,400)"/>
<path d="M0 0 C4.29 0 8.58 0 13 0 C13 0.99 13 1.98 13 3 C9.7 3 6.4 3 3 3 C3 4.98 3 6.96 3 9 C5.64 9 8.28 9 11 9 C11 9.99 11 10.98 11 12 C8.36 12 5.72 12 3 12 C3 14.64 3 17.28 3 20 C6.3 20 9.6 20 13 20 C13 20.66 13 21.32 13 22 C8.71 22 4.42 22 0 22 C0 14.74 0 7.48 0 0 Z " fill="#907055" transform="translate(609,400)"/>
<path d="M0 0 C4.29 0 8.58 0 13 0 C13 0.99 13 1.98 13 3 C9.7 3 6.4 3 3 3 C3 4.98 3 6.96 3 9 C5.64 9 8.28 9 11 9 C11 9.99 11 10.98 11 12 C8.03 12 5.06 12 2 12 C2 14.64 2 17.28 2 20 C5.63 20 9.26 20 13 20 C13 20.66 13 21.32 13 22 C8.71 22 4.42 22 0 22 C0 14.74 0 7.48 0 0 Z " fill="#927258" transform="translate(498,400)"/>
<path d="M0 0 C0.99 0.33 1.98 0.66 3 1 C2.70099216 4.10829085 2.05212752 4.95511002 -0.36328125 7.03515625 C-1.33652344 7.70417969 -2.30976563 8.37320313 -3.3125 9.0625 C-4.27800781 9.73410156 -5.24351562 10.40570313 -6.23828125 11.09765625 C-7.14964844 11.72542969 -8.06101563 12.35320312 -9 13 C-9.73605469 13.57621094 -10.47210938 14.15242187 -11.23046875 14.74609375 C-13 16 -13 16 -15 16 C-17.16766209 14.08245277 -17.94792928 12.61740995 -18.19140625 9.73046875 C-18.18786172 7.47969468 -18.12962465 5.24682724 -18 3 C-16.35 4.65 -14.7 6.3 -13 8 C-8.51746601 6.59920813 -5.42472655 4.09991875 -1.8671875 1.14453125 C-1.25101563 0.76683594 -0.63484375 0.38914062 0 0 Z " fill="#F1F1F0" transform="translate(160,120)"/>
<path d="M0 0 C1.10865985 0.91122727 2.21172219 1.82926659 3.3125 2.75 C4.23482422 3.51570313 4.23482422 3.51570313 5.17578125 4.296875 C7 6 7 6 10 10 C8.35 13.63 6.7 17.26 5 21 C3.68 20.67 2.36 20.34 1 20 C0.11722245 15.48184719 -0.10589503 11.22487306 -0.0625 6.625 C-0.05347656 5.37976563 -0.04445313 4.13453125 -0.03515625 2.8515625 C-0.02355469 1.91054688 -0.01195312 0.96953125 0 0 Z " fill="#FBFBF9" transform="translate(422,305)"/>
<path d="M0 0 C0.66 1.32 1.32 2.64 2 4 C-0.64 3.67 -3.28 3.34 -6 3 C-6.33 4.32 -6.66 5.64 -7 7 C-5.9171875 7.54527344 -5.9171875 7.54527344 -4.8125 8.1015625 C-2.05001607 9.59790796 0.509145 11.08295453 3 13 C3.8125 16.1875 3.8125 16.1875 3 19 C1.36750791 21.12475124 0.50519978 21.90664787 -2.15625 22.3984375 C-2.9296875 22.39070313 -3.703125 22.38296875 -4.5 22.375 C-5.2734375 22.38273437 -6.046875 22.39046875 -6.84375 22.3984375 C-9.45159728 21.91655268 -10.33871866 21.01270624 -12 19 C-8.33333333 19 -4.66666667 19 -1 19 C-0.87786106 16.65851769 -0.87786106 16.65851769 -2 14 C-4.51205816 12.04557544 -7.22881195 10.55282089 -10 9 C-11 8 -11 8 -11.25 5.625 C-11 3 -11 3 -10 1.1875 C-6.76011038 -0.73618446 -3.7174181 -0.18282384 0 0 Z " fill="#8C6A4E" transform="translate(637,400)"/>
<path d="M0 0 C3.375 0.5 3.375 0.5 6.375 2.5 C6.375 3.16 6.375 3.82 6.375 4.5 C5.74851562 4.47679687 5.12203125 4.45359375 4.4765625 4.4296875 C3.65929687 4.41164063 2.84203125 4.39359375 2 4.375 C0.78183594 4.34019531 0.78183594 4.34019531 -0.4609375 4.3046875 C-2.83842243 4.28629949 -2.83842243 4.28629949 -4.625 6.5 C-4.94423475 8.83560151 -4.94423475 8.83560151 -4.875 11.4375 C-4.88015625 12.31277344 -4.8853125 13.18804687 -4.890625 14.08984375 C-4.78333837 16.76105634 -4.78333837 16.76105634 -2.625 19.5 C0.29134129 19.7502157 0.29134129 19.7502157 3.375 19.5 C4.695 19.5 6.015 19.5 7.375 19.5 C6.375 21 6.375 21 4.375 22.5 C-2.61529126 23.27669903 -2.61529126 23.27669903 -6.0625 20.625 C-9.34020906 16.16731567 -9.34316648 11.89863076 -8.625 6.5 C-6.79524517 2.3153589 -4.60174981 0.63472411 0 0 Z " fill="#8C694E" transform="translate(451.625,399.5)"/>
<path d="M0 0 C0.99 0.66 1.98 1.32 3 2 C3.4375 5.4375 3.4375 5.4375 3 9 C1.3125 11 1.3125 11 -1 12 C-4.37036311 11.75925978 -5.58798021 11.41201979 -8 9 C-8.3125 5.5 -8.3125 5.5 -8 2 C-4.75366476 -0.1642235 -3.75698557 -0.37569856 0 0 Z " fill="#F0F0F0" transform="translate(1040,24)"/>
<path d="M0 0 C0.9075 0.226875 1.815 0.45375 2.75 0.6875 C3.41 2.6675 4.07 4.6475 4.75 6.6875 C2.5 9.1875 2.5 9.1875 -0.25 11.6875 C-1.57 11.6875 -2.89 11.6875 -4.25 11.6875 C-4.25 11.0275 -4.25 10.3675 -4.25 9.6875 C-4.91 9.6875 -5.57 9.6875 -6.25 9.6875 C-6.58 7.3775 -6.91 5.0675 -7.25 2.6875 C-4.61280971 0.1517401 -3.74095095 -0.35970682 0 0 Z " fill="#F1F1F0" transform="translate(386.25,211.3125)"/>
<path d="M0 0 C0.78246094 -0.01417969 1.56492187 -0.02835937 2.37109375 -0.04296875 C4.5625 0.1875 4.5625 0.1875 7.5625 2.1875 C6.9025 3.5075 6.2425 4.8275 5.5625 6.1875 C4.95921875 6.17589844 4.3559375 6.16429687 3.734375 6.15234375 C2.93515625 6.14332031 2.1359375 6.13429688 1.3125 6.125 C0.52359375 6.11339844 -0.2653125 6.10179687 -1.078125 6.08984375 C-3.34441002 6.18364694 -5.2663895 6.55508937 -7.4375 7.1875 C-7.4375 7.8475 -7.4375 8.5075 -7.4375 9.1875 C-9.7475 9.8475 -12.0575 10.5075 -14.4375 11.1875 C-13.00064642 6.15851246 -10.49513331 4.23072498 -6.4375 1.1875 C-4.0978331 0.01766655 -2.60358473 0.0213759 0 0 Z " fill="#F1F0F0" transform="translate(694.4375,266.8125)"/>
<path d="M0 0 C5.28 0 10.56 0 16 0 C16 0.99 16 1.98 16 3 C13.69 3 11.38 3 9 3 C9 9.27 9 15.54 9 22 C8.01 22 7.02 22 6 22 C6 15.73 6 9.46 6 3 C4.02 3 2.04 3 0 3 C0 2.01 0 1.02 0 0 Z " fill="#96785F" transform="translate(642,400)"/>
<path d="M0 0 C4.29 0 8.58 0 13 0 C13 0.66 13 1.32 13 2 C9.7 2 6.4 2 3 2 C3 4.64 3 7.28 3 10 C5.64 10 8.28 10 11 10 C11 10.66 11 11.32 11 12 C8.36 12 5.72 12 3 12 C3 15.3 3 18.6 3 22 C2.01 22 1.02 22 0 22 C0 14.74 0 7.48 0 0 Z " fill="#8A674B" transform="translate(481,400)"/>
<path d="M0 0 C5.28 0 10.56 0 16 0 C16 0.66 16 1.32 16 2 C13.69 2 11.38 2 9 2 C9 8.6 9 15.2 9 22 C8.01 22 7.02 22 6 22 C6 15.73 6 9.46 6 3 C4.02 3 2.04 3 0 3 C0 2.01 0 1.02 0 0 Z " fill="#805A3C" transform="translate(757,400)"/>
<path d="M0 0 C0.66 0 1.32 0 2 0 C2.99 2.31 3.98 4.62 5 7 C5.66 6.67 6.32 6.34 7 6 C7.99 9.63 8.98 13.26 10 17 C9.01 17 8.02 17 7 17 C6.34 15.02 5.68 13.04 5 11 C2.36 11 -0.28 11 -3 11 C-2.69078116 9.54096742 -2.37751201 8.08279278 -2.0625 6.625 C-1.88847656 5.81289063 -1.71445312 5.00078125 -1.53515625 4.1640625 C-1 2 -1 2 0 0 Z " fill="#A28671" transform="translate(468,405)"/>
<path d="M0 0 C0.66 0 1.32 0 2 0 C2.99 2.31 3.98 4.62 5 7 C5.66 6.67 6.32 6.34 7 6 C7.99 9.63 8.98 13.26 10 17 C9.01 17 8.02 17 7 17 C6.34 15.02 5.68 13.04 5 11 C2.36 11 -0.28 11 -3 11 C-2.69078116 9.54096742 -2.37751201 8.08279278 -2.0625 6.625 C-1.88847656 5.81289063 -1.71445312 5.00078125 -1.53515625 4.1640625 C-1 2 -1 2 0 0 Z " fill="#A38872" transform="translate(724,405)"/>
<path d="M0 0 C2.82644678 4.23967017 2.65911947 8.02086859 2 13 C-0.10504591 16.55680172 -1.08406808 17.69468936 -5 19 C-4.38722388 16.03824877 -3.74627478 14.61941217 -2 12 C-1.68521423 10.04785375 -1.68521423 10.04785375 -1.75 8 C-1.74484375 7.319375 -1.7396875 6.63875 -1.734375 5.9375 C-1.90082397 3.67583993 -1.90082397 3.67583993 -4 1 C-7.56769552 0.26393501 -7.56769552 0.26393501 -11 0 C-11 -0.33 -11 -0.66 -11 -1 C-6.6292047 -2.01646402 -3.97712063 -2.20951146 0 0 Z " fill="#8F6E53" transform="translate(576,403)"/>
<path d="M0 0 C0.99 0.33 1.98 0.66 3 1 C3.06058594 1.60328125 3.12117187 2.2065625 3.18359375 2.828125 C3.26738281 3.62734375 3.35117187 4.4265625 3.4375 5.25 C3.55931641 6.43335938 3.55931641 6.43335938 3.68359375 7.640625 C3.97634993 9.82364639 4.42064419 11.8773182 5 14 C2.69 14 0.38 14 -2 14 C-3.1171875 12.328125 -3.1171875 12.328125 -4 10 C-3.3203125 7.421875 -3.3203125 7.421875 -2.125 4.75 C-1.73570312 3.85796875 -1.34640625 2.9659375 -0.9453125 2.046875 C-0.63335938 1.37140625 -0.32140625 0.6959375 0 0 Z " fill="#977860" transform="translate(665,400)"/>
<path d="M0 0 C5.625 -0.25 5.625 -0.25 9 2 C9.1875 4.625 9.1875 4.625 9 7 C5.86501708 8.85776765 3.62528568 9.20140476 0 9 C0 6.03 0 3.06 0 0 Z " fill="#F1EDEA" transform="translate(592,402)"/>
<path d="M0 0 C11 0 11 0 15 3 C15.5625 5.875 15.5625 5.875 15 9 C12.5 11.875 12.5 11.875 10 14 C10.09539063 13.30132812 10.19078125 12.60265625 10.2890625 11.8828125 C10.39992188 10.97273438 10.51078125 10.06265625 10.625 9.125 C10.74101563 8.22007812 10.85703125 7.31515625 10.9765625 6.3828125 C10.98429688 5.59648437 10.99203125 4.81015625 11 4 C8.51761809 1.10832435 8.51761809 1.10832435 1 1 C1 7.93 1 14.86 1 22 C0.67 22 0.34 22 0 22 C0 14.74 0 7.48 0 0 Z " fill="#A0846D" transform="translate(589,400)"/>
<path d="M0 0 C0.33 0 0.66 0 1 0 C1.13277344 0.68707031 1.26554688 1.37414062 1.40234375 2.08203125 C1.57894531 2.98308594 1.75554688 3.88414062 1.9375 4.8125 C2.11152344 5.70582031 2.28554688 6.59914063 2.46484375 7.51953125 C2.97741153 10.11397171 2.97741153 10.11397171 4 13 C-0.51478398 12.46884894 -3.34666857 10.63379708 -7 8 C-6.02133662 6.85373678 -5.04205413 5.70800212 -4.0625 4.5625 C-3.51722656 3.92441406 -2.97195313 3.28632813 -2.41015625 2.62890625 C-1.63204305 1.73008851 -0.84063472 0.84063472 0 0 Z " fill="#EFEDEB" transform="translate(662,306)"/>
<path d="M0 0 C2.64 0 5.28 0 8 0 C8.625 2.375 8.625 2.375 9 5 C7 7 7 7 3.375 7.125 C2.26125 7.08375 1.1475 7.0425 0 7 C0 4.69 0 2.38 0 0 Z " fill="#FAF9F7" transform="translate(703,403)"/>
<path d="M0 0 C3 1 3 1 3.89135742 2.62646484 C4.12701416 3.31434082 4.3626709 4.0022168 4.60546875 4.7109375 C4.86650391 5.46117187 5.12753906 6.21140625 5.39648438 6.984375 C5.65751953 7.77328125 5.91855469 8.5621875 6.1875 9.375 C6.46013672 10.15617187 6.73277344 10.93734375 7.01367188 11.7421875 C9 17.55680216 9 17.55680216 9 21 C8.01 21 7.02 21 6 21 C3.18372642 14.16047845 1.55238768 7.22245615 0 0 Z " fill="#8B694E" transform="translate(528,401)"/>
<path d="M0 0 C0.66 0 1.32 0 2 0 C2 7.26 2 14.52 2 22 C0.68 21.67 -0.64 21.34 -2 21 C-2.33 19.68 -2.66 18.36 -3 17 C-2.34 17 -1.68 17 -1 17 C-0.67 11.39 -0.34 5.78 0 0 Z " fill="#825C3F" transform="translate(554,400)"/>
<path d="M0 0 C5.28 0 10.56 0 16 0 C16 0.33 16 0.66 16 1 C13.03 1 10.06 1 7 1 C7 7.93 7 14.86 7 22 C6.67 22 6.34 22 6 22 C6 15.73 6 9.46 6 3 C4.02 3 2.04 3 0 3 C0 2.01 0 1.02 0 0 Z " fill="#A78E79" transform="translate(757,400)"/>
<path d="M0 0 C0.33 0 0.66 0 1 0 C1 5.94 1 11.88 1 18 C-0.32 18 -1.64 18 -3 18 C-3.83848804 16.54462432 -4.67063934 15.08559627 -5.5 13.625 C-5.9640625 12.81289063 -6.428125 12.00078125 -6.90625 11.1640625 C-8 9 -8 9 -8 7 C-7.01 7 -6.02 7 -5 7 C-3.68 9.31 -2.36 11.62 -1 14 C-0.67 9.38 -0.34 4.76 0 0 Z " fill="#A28771" transform="translate(553,400)"/>
<path d="M0 0 C4.95 0 9.9 0 15 0 C13 3 13 3 10.9765625 3.65234375 C9.81253906 3.79349609 9.81253906 3.79349609 8.625 3.9375 C7.85414063 4.04964844 7.08328125 4.16179688 6.2890625 4.27734375 C4 4 4 4 0 0 Z " fill="#FDFDFC" transform="translate(317,0)"/>
<path d="M0 0 C0.99 0.66 1.98 1.32 3 2 C3 2.66 3 3.32 3 4 C2.39671875 3.97679687 1.7934375 3.95359375 1.171875 3.9296875 C0.37265625 3.91164063 -0.4265625 3.89359375 -1.25 3.875 C-2.43335938 3.84019531 -2.43335938 3.84019531 -3.640625 3.8046875 C-6.20731941 4.0171622 -7.7916067 4.71345895 -10 6 C-10 3 -10 3 -8.9375 1.3125 C-5.9613298 -0.7036153 -3.49961329 -0.31246547 0 0 Z " fill="#917056" transform="translate(455,400)"/>
<path d="M0 0 C0.33 0 0.66 0 1 0 C1 6.93 1 13.86 1 21 C-3 19 -3 19 -4.25 15.875 C-4.4975 14.92625 -4.745 13.9775 -5 13 C-2 14 -2 14 -1 16 C-0.67 10.72 -0.34 5.44 0 0 Z " fill="#845F42" transform="translate(751,401)"/>
<path d="M0 0 C1.32 0 2.64 0 4 0 C7.42857143 8.42857143 7.42857143 8.42857143 7 13 C4.10067643 10.60490662 3.49831724 8.68754757 3 5 C2.34 5 1.68 5 1 5 C0.67 3.35 0.34 1.7 0 0 Z " fill="#94755B" transform="translate(723,400)"/>
<path d="M0 0 C1.32 0 2.64 0 4 0 C7.42857143 8.42857143 7.42857143 8.42857143 7 13 C4.10067643 10.60490662 3.49831724 8.68754757 3 5 C2.34 5 1.68 5 1 5 C0.67 3.35 0.34 1.7 0 0 Z " fill="#94745B" transform="translate(467,400)"/>
<path d="M0 0 C2.29633824 3.44450737 2.54016485 5.93812283 3 10 C1.02 10 -0.96 10 -3 10 C-2.01 6.7 -1.02 3.4 0 0 Z " fill="#F2EFEB" transform="translate(528,403)"/>
<path d="M0 0 C0.99 0.33 1.98 0.66 3 1 C3 2.65 3 4.3 3 6 C1.35 6.33 -0.3 6.66 -2 7 C-2.33 5.35 -2.66 3.7 -3 2 C-2.01 1.34 -1.02 0.68 0 0 Z " fill="#F2F2F1" transform="translate(853,400)"/>
<path d="M0 0 C1.65 0.33 3.3 0.66 5 1 C5 2.32 5 3.64 5 5 C3.02 5.99 3.02 5.99 1 7 C0.34 6.34 -0.32 5.68 -1 5 C-0.625 2.375 -0.625 2.375 0 0 Z " fill="#F1F1F0" transform="translate(515,118)"/>
<path d="M0 0 C0.66 0 1.32 0 2 0 C3.25664978 2.90600261 4 4.79604584 4 8 C2.02 8 0.04 8 -2 8 C-1.125 2.25 -1.125 2.25 0 0 Z " fill="#F3EFEC" transform="translate(724,405)"/>
<path d="M0 0 C0.66 0 1.32 0 2 0 C3.25664978 2.90600261 4 4.79604584 4 8 C2.02 8 0.04 8 -2 8 C-1.125 2.25 -1.125 2.25 0 0 Z " fill="#F3EFEB" transform="translate(468,405)"/>
<path d="M0 0 C0 1.65 0 3.3 0 5 C-1.65 5.33 -3.3 5.66 -5 6 C-5.33 4.02 -5.66 2.04 -6 0 C-3.50907189 -1.24546405 -2.58919267 -0.7767578 0 0 Z " fill="#F1F1F0" transform="translate(288,32)"/>
<path d="M0 0 C2.95183101 2.95183101 3.08663988 5.95511947 4 10 C2.02 10 0.04 10 -2 10 C-1.34 6.7 -0.68 3.4 0 0 Z " fill="#F4F1EE" transform="translate(666,403)"/>
<path d="M0 0 C4.95 0 9.9 0 15 0 C12.13087012 2.86912988 8.90308825 2.96268558 5 3 C2 2.0625 2 2.0625 0 1 C0 0.67 0 0.34 0 0 Z " fill="#F1F1F0" transform="translate(727,0)"/>
<path d="M0 0 C0.99 0.33 1.98 0.66 3 1 C6.68382769 1.13156527 9.49053585 1.16982138 13 0 C12.34 1.32 11.68 2.64 11 4 C9.56344146 4.08131463 8.1255517 4.13933559 6.6875 4.1875 C5.48673828 4.23970703 5.48673828 4.23970703 4.26171875 4.29296875 C1.52148416 3.93801608 0.70828921 3.10633718 -1 1 C-0.67 0.67 -0.34 0.34 0 0 Z " fill="#876346" transform="translate(626,418)"/>
<path d="M0 0 C4.75 0.875 4.75 0.875 7 2 C6.67 2.99 6.34 3.98 6 5 C5.01 5.33 4.02 5.66 3 6 C1.5 4.6875 1.5 4.6875 0 3 C0 2.01 0 1.02 0 0 Z " fill="#F2F2F1" transform="translate(142,385)"/>
<path d="M0 0 C0.91007813 0.00902344 1.82015625 0.01804687 2.7578125 0.02734375 C3.45648437 0.03894531 4.15515625 0.05054688 4.875 0.0625 C4.875 0.3925 4.875 0.7225 4.875 1.0625 C1.905 1.0625 -1.065 1.0625 -4.125 1.0625 C-4.455 3.0425 -4.785 5.0225 -5.125 7.0625 C-6.115 7.0625 -7.105 7.0625 -8.125 7.0625 C-7.75 4.125 -7.75 4.125 -7.125 1.0625 C-4.60024538 -0.19987731 -2.81299534 -0.03606404 0 0 Z " fill="#9B7E66" transform="translate(666.125,414.9375)"/>
<path d="M0 0 C0.99 0.33 1.98 0.66 3 1 C3 2.65 3 4.3 3 6 C1.68 6 0.36 6 -1 6 C-1.33 4.35 -1.66 2.7 -2 1 C-1.34 0.67 -0.68 0.34 0 0 Z " fill="#F0EFEE" transform="translate(478,414)"/>
<path d="M0 0 C-0.99 0.495 -0.99 0.495 -2 1 C-2 1.66 -2 2.32 -2 3 C-7.94 2.01 -7.94 2.01 -14 1 C-14 0.67 -14 0.34 -14 0 C-9.20699867 -1.39151652 -4.84864218 -0.68662689 0 0 Z " fill="#997B63" transform="translate(510,227)"/>
<path d="M0 0 C1.875 0.1875 1.875 0.1875 4 1 C5.25 3.5625 5.25 3.5625 6 6 C4.35 6 2.7 6 1 6 C0.67 4.02 0.34 2.04 0 0 Z " fill="#8A684C" transform="translate(541,401)"/>
<path d="M0 0 C0.33 0.66 0.66 1.32 1 2 C0.06421005 4.35981813 -0.93347808 6.69631264 -2 9 C-2.99 8.67 -3.98 8.34 -5 8 C-3.62845496 5.04590299 -2.01136276 2.55991624 0 0 Z " fill="#E4DED8" transform="translate(714,284)"/>
<path d="M0 0 C0.99 0.33 1.98 0.66 3 1 C3.33 2.65 3.66 4.3 4 6 C3.01 6 2.02 6 1 6 C0.67 4.02 0.34 2.04 0 0 Z " fill="#8C6A4F" transform="translate(730,416)"/>
<path d="M0 0 C0.99 0.33 1.98 0.66 3 1 C3.33 2.65 3.66 4.3 4 6 C3.01 6 2.02 6 1 6 C0.67 4.02 0.34 2.04 0 0 Z " fill="#8B684D" transform="translate(474,416)"/>
</svg>
